<?xml version="1.0" standalone="no"?>
<!DOCTYPE svg PUBLIC "-//W3C//DTD SVG 20010904//EN"
 "http://www.w3.org/TR/2001/REC-SVG-20010904/DTD/svg10.dtd">
<svg version="1.0" xmlns="http://www.w3.org/2000/svg"
 width="190.000000pt" height="190.000000pt" viewBox="0 0 190.000000 190.000000"
 preserveAspectRatio="xMidYMid meet">
<metadata>
Created by potrace 1.14, written by Peter Selinger 2001-2017
</metadata>
<g transform="translate(0.000000,190.000000) scale(0.100000,-0.100000)"
fill="#000000" stroke="none">
<path d="M688 1443 c-285 -401 -594 -871 -671 -1019 l-16 -32 68 -36 c38 -20
71 -36 75 -36 3 0 17 21 32 48 169 296 404 656 651 995 51 70 93 131 93 135 0
8 -92 80 -114 88 -8 3 -52 -51 -118 -143z"/>
<path d="M160 1548 c-50 -17 -133 -104 -148 -154 -53 -180 96 -351 275 -315
100 20 179 101 197 202 16 90 -39 202 -123 248 -50 27 -147 36 -201 19z m131
-148 c23 -13 49 -61 49 -91 0 -11 -16 -37 -35 -56 -32 -32 -40 -35 -73 -30
-48 8 -82 46 -82 93 0 69 80 116 141 84z"/>
<path d="M1294 1355 c-72 -15 -130 -43 -177 -85 -35 -31 -114 -137 -106 -144
2 -2 33 -22 68 -45 l64 -41 27 43 c36 57 91 104 137 116 61 17 172 13 218 -8
72 -32 103 -83 119 -197 l6 -41 -52 18 c-72 24 -190 33 -272 19 -121 -19 -217
-83 -272 -182 -27 -49 -29 -61 -29 -153 0 -111 9 -136 72 -206 74 -82 188
-114 318 -90 77 14 172 59 223 105 l40 36 22 -44 c19 -40 89 -106 112 -106 4
0 25 26 47 58 l40 59 -42 35 -42 35 -6 274 c-5 252 -7 279 -27 330 -69 174
-269 262 -488 214z m205 -515 c28 -5 74 -19 101 -31 49 -21 50 -23 50 -64 0
-33 -8 -52 -34 -86 -70 -91 -161 -140 -269 -146 -83 -5 -110 6 -145 57 -32 47
-28 139 7 186 54 74 169 107 290 84z"/>
<path d="M590 831 c-114 -37 -174 -119 -174 -236 0 -76 15 -117 63 -168 90
-97 250 -98 346 -2 112 111 89 294 -47 378 -49 31 -140 44 -188 28z m123 -161
c51 -41 43 -126 -16 -156 -39 -21 -90 -11 -117 23 -67 86 47 200 133 133z"/>
</g>
</svg>
